<svg xmlns="http://www.w3.org/2000/svg" height="40" viewBox="0 96 960 960" width="40"><path d="M275.14 988.746q-33.475 0-57.155-23.838t-23.68-57.312q0-33.475 23.838-57.155t57.312-23.68q33.475 0 57.155 23.838t23.68 57.313q0 33.474-23.838 57.154-23.838 23.68-57.312 23.68Zm412.513 0q-33.575 0-57.136-23.838-23.56-23.838-23.56-57.312 0-33.475 23.773-57.155t57.157-23.68q33.695 0 57.255 23.838 23.561 23.838 23.561 57.313 0 33.474-23.738 57.154-23.737 23.68-57.312 23.68ZM199.558 237.783h609.904q25.692 0 39.376 23.783 13.683 23.782.248 47.971L705.849 566.703q-11.626 21.222-31.952 34.517-20.326 13.294-44.803 13.294H323.29l-43.841 80.638h493.297v86.072H268.631q-49.29 0-71.228-37.018-21.939-37.017-.047-77.988l58-107.551-147.739-314.146H24.551V158.45h137.674l37.333 79.333Z"/></svg>